<?xml version="1.0" standalone="no"?>
<svg xmlns="http://www.w3.org/2000/svg" viewBox="0 0 146.904 29" width="146.904" height="29"><g fill="#007bff" color="#007bff" transform="translate(0, 0) scale(0.3020834)"><svg width="96.0" height="96.0" x="0.0" y="0.0" viewBox="0 0 96 96"><path d="M92.124,36c-0.024,0-0.052,0-0.08,0H3.876c-0.868,0-1.636-0.56-1.904-1.38c-0.268-0.828,0.024-1.728,0.728-2.24l44.084-32  c0.704-0.504,1.648-0.504,2.353,0L92.92,32.16c0.708,0.312,1.204,1.016,1.204,1.836C94.124,35.104,93.232,36,92.124,36z"></path><path d="M92.04,96h-88c-1.104,0-2-0.9-2-2v-8c0-1.1,0.896-2,2-2h88c1.104,0,2,0.9,2,2v8C94.04,95.1,93.145,96,92.04,96z"></path><path d="M20.04,80h-12c-1.104,0-2-0.9-2-2V42c0-1.104,0.896-2,2-2h12c1.104,0,2,0.896,2,2v36C22.04,79.1,21.144,80,20.04,80z"></path><path d="M88.04,80h-12c-1.101,0-2-0.9-2-2V42c0-1.104,0.899-2,2-2h12c1.104,0,2,0.896,2,2v36C90.04,79.1,89.145,80,88.04,80z"></path><path d="M37.948,73.256c3.792,0,7.292,0.805,10.008,2.288c2.728-1.483,6.252-2.288,10.084-2.288c2.952,0,5.739,0.477,8,1.32v-29.56  c-1.672-0.876-4.5-1.416-7.588-1.416c-3.496,0-6.664,0.692-8.412,1.792V64c0,1.104-0.899,2-2,2c-1.1,0-2-0.896-2-2V45.392  c-1.752-1.1-4.916-1.792-8.416-1.792c-3.084,0-5.92,0.544-7.584,1.416v29.56C32.284,73.729,35.04,73.256,37.948,73.256z"></path></svg></g><line x1="41" y1="1" x2="41" y2="28" stroke="#343a40" stroke-linecap="round"></line><path fill="#343a40" fill-rule="nonzero" d="M15.72 6.77L15.72 6.77Q15.72 8.26 14.90 9.42Q14.09 10.58 12.67 11.35L12.67 11.35Q13.58 11.98 14.12 12.88Q14.66 13.78 14.66 14.86L14.66 14.86Q14.66 16.15 13.88 17.41Q13.10 18.67 11.81 19.64Q10.51 20.62 8.86 21.22Q7.20 21.82 5.47 21.82L5.47 21.82Q3.60 21.82 2.20 21.11Q0.79 20.40 0 19.10L0 19.10Q0.24 18.38 0.64 17.32Q1.03 16.25 1.51 15.06Q1.99 13.87 2.48 12.70Q2.98 11.52 3.41 10.58L3.41 10.58Q4.32 8.54 5.04 7.20Q5.76 5.86 6.36 5.06L6.36 5.06Q5.04 5.47 3.96 5.99Q2.88 6.50 2.38 6.98L2.38 6.98Q2.16 6.84 1.93 6.55Q1.70 6.26 1.50 5.92Q1.30 5.57 1.16 5.21Q1.03 4.85 1.01 4.56L1.01 4.56Q1.63 4.13 2.63 3.73Q3.62 3.34 4.80 3.05Q5.98 2.76 7.21 2.59Q8.45 2.42 9.58 2.42L9.58 2.42Q12.46 2.42 14.09 3.58Q15.72 4.73 15.72 6.77ZM6.58 12.50L6.58 12.50Q6.12 12.29 5.74 11.86L5.74 11.86Q5.18 13.08 4.69 14.26Q4.20 15.43 3.82 16.44Q3.43 17.45 3.19 18.19Q2.95 18.94 2.93 19.27L2.93 19.27Q3.26 19.46 3.73 19.56Q4.20 19.66 4.90 19.66L4.90 19.66Q6.53 19.66 8.02 19.20Q9.50 18.74 10.63 17.96Q11.76 17.18 12.43 16.18Q13.10 15.17 13.10 14.06L13.10 14.06Q13.10 12.48 11.74 11.78L11.74 11.78Q9.86 12.55 7.51 12.55L7.51 12.55Q7.18 12.55 7.00 12.55Q6.82 12.55 6.58 12.50ZM11.23 4.18L11.23 4.18Q10.73 4.18 10.16 4.24Q9.60 4.30 8.98 4.42L8.98 4.42Q9.07 4.51 9.13 4.62Q9.19 4.73 9.24 4.85L9.24 4.85Q9.02 5.14 8.71 5.69Q8.40 6.24 8.02 6.97Q7.63 7.70 7.21 8.59Q6.79 9.48 6.36 10.42L6.36 10.42Q6.77 10.32 7.36 10.26Q7.94 10.20 8.52 10.20L8.52 10.20Q8.83 10.20 9.13 10.22Q9.43 10.25 9.72 10.30L9.72 10.30Q10.87 10.10 11.80 9.73Q12.72 9.36 13.39 8.87Q14.06 8.38 14.42 7.78Q14.78 7.18 14.78 6.50L14.78 6.50Q14.78 5.35 13.87 4.76Q12.96 4.18 11.23 4.18ZM16.18 18.38L16.18 18.38Q16.18 18.17 16.21 17.84Q16.25 17.52 16.34 16.98Q16.44 16.44 16.60 15.67Q16.75 14.90 16.99 13.82L16.99 13.82Q17.04 13.58 17.21 13.06Q17.38 12.53 17.65 11.94Q17.93 11.35 18.32 10.80Q18.72 10.25 19.27 9.98L19.27 9.98Q19.68 10.08 20.35 10.48Q21.02 10.87 21.50 11.57L21.50 11.57Q20.95 12.19 20.58 12.82Q20.21 13.44 19.91 14.11Q19.61 14.78 19.36 15.50Q19.10 16.22 18.79 17.02L18.79 17.02Q18.53 17.69 18.31 18.40Q18.10 19.10 18.07 19.63L18.07 19.63Q18.07 20.06 18.06 20.24Q18.05 20.42 17.93 20.42L17.93 20.42Q17.83 20.42 17.54 20.30Q17.26 20.18 16.96 19.93Q16.66 19.68 16.42 19.30Q16.18 18.91 16.18 18.38ZM20.76 7.97L20.76 7.97Q20.76 7.82 20.83 7.54L20.83 7.54Q20.71 7.42 20.63 7.18Q20.54 6.94 20.54 6.74L20.54 6.74Q20.54 6.53 20.60 6.16Q20.66 5.78 20.76 5.35Q20.86 4.92 21 4.45Q21.14 3.98 21.29 3.60L21.29 3.60Q21.58 3.60 22.00 3.76Q22.42 3.91 22.85 4.16Q23.28 4.42 23.64 4.72Q24 5.02 24.19 5.28L24.19 5.28Q23.93 5.54 23.50 6.01Q23.06 6.48 22.66 7.00Q22.25 7.51 21.91 7.97Q21.58 8.42 21.48 8.62L21.48 8.62Q21.19 8.57 20.98 8.36Q20.76 8.16 20.76 7.97ZM24.02 20.16L24.02 20.16Q25.13 19.42 26.18 18.25Q27.24 17.09 28.10 15.73Q28.97 14.38 29.57 12.91Q30.17 11.45 30.38 10.10L30.38 10.10Q30.38 9.82 30.07 9.72L30.07 9.72Q29.74 9.72 29.15 10.31Q28.56 10.90 27.85 11.81Q27.14 12.72 26.41 13.85Q25.68 14.98 25.08 16.09Q24.48 17.21 24.06 18.18Q23.64 19.15 23.59 19.75L23.59 19.75Q23.35 19.75 23.18 19.27L23.18 19.27Q23.14 19.15 23.02 19.02Q22.90 18.89 22.63 18.70L22.63 18.70Q22.51 18.60 22.39 18.47Q22.27 18.34 22.22 18.24L22.22 18.24Q22.13 18.05 22.13 17.62L22.13 17.62Q22.13 16.20 22.49 14.42Q22.85 12.65 23.44 10.80Q24.02 8.95 24.82 7.16Q25.61 5.38 26.46 3.89Q27.31 2.40 28.18 1.37Q29.04 0.34 29.81 0L29.81 0Q30.05 0.07 30.38 0.24Q30.72 0.41 31.06 0.62Q31.39 0.84 31.69 1.06Q31.99 1.27 32.14 1.44L32.14 1.44Q29.50 3.58 27.56 6.92Q25.63 10.27 24.41 14.83L24.41 14.83Q25.08 13.58 25.92 12.42Q26.76 11.26 27.59 10.37Q28.42 9.48 29.17 8.95Q29.93 8.42 30.43 8.42L30.43 8.42Q30.82 8.52 31.18 8.76Q31.54 9 31.82 9.35Q32.11 9.70 32.30 10.09Q32.50 10.49 32.54 10.92L32.54 10.92Q32.52 11.93 32.20 13.07Q31.87 14.21 31.33 15.31Q30.79 16.42 30.11 17.42Q29.42 18.43 28.67 19.19Q27.91 19.94 27.16 20.40Q26.40 20.86 25.73 20.86L25.73 20.86Q25.44 20.86 25.14 20.80Q24.84 20.74 24.59 20.63Q24.34 20.52 24.18 20.40Q24.02 20.28 24.02 20.16ZM33.12 18.46L33.12 18.46Q33.12 17.40 33.62 15.49Q34.13 13.58 35.04 11.04L35.04 11.04Q36.53 6.98 37.84 4.28Q39.14 1.58 40.39 0.07L40.39 0.07Q40.68 0.12 41.10 0.31Q41.52 0.50 41.93 0.73Q42.34 0.96 42.66 1.20Q42.98 1.44 43.08 1.58L43.08 1.58Q41.21 3.79 39.79 6.34Q38.38 8.88 37.20 12.17L37.20 12.17Q36.19 15 35.66 17.27Q35.14 19.54 35.14 21.05L35.14 21.05Q35.14 21.46 35.14 21.55Q35.14 21.65 35.16 21.74L35.16 21.74Q34.82 21.70 34.58 21.58Q34.34 21.46 34.27 21.29L34.27 21.29Q34.22 21.17 34.01 20.94Q33.79 20.71 33.62 20.59L33.62 20.59Q33.41 20.45 33.26 19.84Q33.12 19.22 33.12 18.46ZM38.83 18.38L38.83 18.38Q38.83 18.17 38.87 17.84Q38.90 17.52 39 16.98Q39.10 16.44 39.25 15.67Q39.41 14.90 39.65 13.82L39.65 13.82Q39.70 13.58 39.86 13.06Q40.03 12.53 40.31 11.94Q40.58 11.35 40.98 10.80Q41.38 10.25 41.93 9.98L41.93 9.98Q42.34 10.08 43.01 10.48Q43.68 10.87 44.16 11.57L44.16 11.57Q43.61 12.19 43.24 12.82Q42.86 13.44 42.56 14.11Q42.26 14.78 42.01 15.50Q41.76 16.22 41.45 17.02L41.45 17.02Q41.18 17.69 40.97 18.40Q40.75 19.10 40.73 19.63L40.73 19.63Q40.73 20.06 40.72 20.24Q40.70 20.42 40.58 20.42L40.58 20.42Q40.49 20.42 40.20 20.30Q39.91 20.18 39.61 19.93Q39.31 19.68 39.07 19.30Q38.83 18.91 38.83 18.38ZM43.42 7.97L43.42 7.97Q43.42 7.82 43.49 7.54L43.49 7.54Q43.37 7.42 43.28 7.18Q43.20 6.94 43.20 6.74L43.20 6.74Q43.20 6.53 43.26 6.16Q43.32 5.78 43.42 5.35Q43.51 4.92 43.66 4.45Q43.80 3.98 43.94 3.60L43.94 3.60Q44.23 3.60 44.65 3.76Q45.07 3.91 45.50 4.16Q45.94 4.42 46.30 4.72Q46.66 5.02 46.85 5.28L46.85 5.28Q46.58 5.54 46.15 6.01Q45.72 6.48 45.31 7.00Q44.90 7.51 44.57 7.97Q44.23 8.42 44.14 8.62L44.14 8.62Q43.85 8.57 43.63 8.36Q43.42 8.16 43.42 7.97ZM47.30 20.83L47.30 20.83Q45.94 20.69 45.12 19.63Q44.30 18.58 44.30 16.94L44.30 16.94Q44.30 15.98 44.59 14.95Q44.88 13.92 45.41 12.95Q45.94 11.98 46.66 11.11Q47.38 10.25 48.22 9.62L48.22 9.62Q49.54 8.64 50.69 8.64L50.69 8.64Q51.46 9.05 52.20 10.34L52.20 10.34Q52.32 10.34 52.42 10.33Q52.51 10.32 52.63 10.32L52.63 10.32Q53.90 10.32 53.90 12.58L53.90 12.58Q53.90 14.09 53.41 15.44Q52.92 16.80 52.04 17.90Q51.17 19.01 49.96 19.76Q48.74 20.52 47.30 20.83ZM48.53 13.27L48.53 13.27Q48.12 13.82 47.76 14.47Q47.40 15.12 47.14 15.78Q46.87 16.44 46.73 17.05Q46.58 17.66 46.58 18.14L46.58 18.14Q46.58 18.72 46.78 19.25Q46.97 19.78 47.21 19.85L47.21 19.85Q48.29 19.61 49.19 18.95Q50.09 18.29 50.75 17.30Q51.41 16.32 51.78 15.07Q52.15 13.82 52.15 12.41L52.15 12.41Q52.15 11.78 52.08 11.42Q52.01 11.06 51.84 10.80L51.84 10.80Q50.78 11.11 49.96 11.81Q49.13 12.50 48.53 13.27ZM56.98 5.45L56.98 5.45Q56.02 5.45 55.50 4.91Q54.98 4.37 54.98 3.60L54.98 3.60Q54.98 3.41 55.04 3.14Q55.10 2.88 55.20 2.69L55.20 2.69Q55.51 2.83 56.12 2.89Q56.74 2.95 57.55 2.95L57.55 2.95Q58.78 2.95 60.32 2.84Q61.87 2.74 63.29 2.62Q64.70 2.50 65.78 2.39Q66.86 2.28 67.18 2.28L67.18 2.28Q68.06 2.28 68.46 2.94Q68.86 3.60 69.05 4.70L69.05 4.70Q68.42 4.66 67.81 4.62Q67.20 4.58 66.77 4.58L66.77 4.58Q66 4.58 65.22 4.63Q64.44 4.68 63.65 4.78L63.65 4.78Q63.31 5.47 62.90 6.42Q62.50 7.37 62.10 8.40Q61.70 9.43 61.34 10.45Q60.98 11.47 60.72 12.29L60.72 12.29Q60.19 13.87 59.80 15.22Q59.40 16.56 59.10 17.72Q58.80 18.89 58.58 19.94Q58.37 21 58.20 22.01L58.20 22.01Q56.59 21.77 55.51 19.99L55.51 19.99Q55.70 19.25 55.98 18.37Q56.26 17.50 56.63 16.38Q57 15.26 57.50 13.85Q58.01 12.43 58.66 10.63L58.66 10.63Q58.90 9.96 59.16 9.23Q59.42 8.50 59.68 7.78Q59.93 7.06 60.13 6.38Q60.34 5.71 60.48 5.16L60.48 5.16Q59.47 5.28 58.57 5.36Q57.67 5.45 56.98 5.45ZM76.25 9.77L76.25 9.77Q77.04 9.77 77.48 10.20Q77.93 10.63 77.93 11.40L77.93 11.40Q77.93 11.59 77.89 11.80Q77.86 12 77.81 12.14L77.81 12.14Q77.50 12.10 77.11 12.06Q76.73 12.02 76.20 12.02L76.20 12.02Q75.17 12.02 74.11 12.20Q73.06 12.38 72.10 12.50L72.10 12.50Q71.54 13.78 71.09 14.96Q70.63 16.15 70.31 17.14Q69.98 18.12 69.80 18.84Q69.62 19.56 69.60 19.92L69.60 19.92Q71.54 19.51 73.52 19.22Q75.50 18.94 77.69 18.79L77.69 18.79Q77.95 19.20 78.13 19.68Q78.31 20.16 78.31 20.71L78.31 20.71Q78.31 20.86 78.31 21.02Q78.31 21.19 78.26 21.36L78.26 21.36Q77.59 21.34 76.85 21.32Q76.10 21.31 74.90 21.31L74.90 21.31Q74.11 21.31 73.40 21.35Q72.70 21.38 71.98 21.46Q71.26 21.53 70.45 21.65Q69.65 21.77 68.64 21.94L68.64 21.94Q67.54 21.50 66.50 19.82L66.50 19.82Q66.91 18.96 67.64 17.20Q68.38 15.43 69.50 12.48L69.50 12.48Q68.42 12.14 68.09 11.28L68.09 11.28Q68.21 11.16 68.78 10.98Q69.36 10.80 70.20 10.61L70.20 10.61Q70.56 9.67 70.81 8.98Q71.06 8.28 71.26 7.67Q71.45 7.06 71.60 6.47Q71.76 5.88 71.90 5.18L71.90 5.18Q71.06 5.14 70.58 4.72Q70.10 4.30 70.10 3.62L70.10 3.62Q70.10 3.43 70.16 3.17Q70.22 2.90 70.30 2.71L70.30 2.71Q70.78 2.78 71.22 2.81Q71.66 2.83 72.38 2.83L72.38 2.83Q73.90 2.83 75.22 2.75Q76.54 2.66 77.60 2.57Q78.67 2.47 79.44 2.39Q80.21 2.30 80.62 2.30L80.62 2.30Q81.17 2.30 81.60 2.88Q82.03 3.46 82.25 4.51L82.25 4.51Q81.50 4.44 81.04 4.42Q80.57 4.39 80.21 4.39L80.21 4.39Q78.89 4.39 77.80 4.52Q76.70 4.66 75.70 4.80L75.70 4.80Q75.55 5.02 75.37 5.35Q75.19 5.69 74.90 6.29Q74.62 6.89 74.20 7.80Q73.78 8.71 73.18 10.08L73.18 10.08Q74.09 9.94 74.89 9.85Q75.70 9.77 76.25 9.77ZM81.70 15.29L81.70 15.29Q81.70 13.61 82.09 11.99Q82.49 10.37 83.21 8.92Q83.93 7.46 84.92 6.25Q85.92 5.04 87.11 4.15Q88.30 3.26 89.64 2.77Q90.98 2.28 92.40 2.28L92.40 2.28Q94.06 2.28 94.98 2.98Q95.90 3.67 95.90 4.92L95.90 4.92Q95.90 5.40 95.77 5.90Q95.64 6.41 95.39 6.90Q95.14 7.39 94.80 7.85Q94.46 8.30 94.06 8.64L94.06 8.64Q93.43 8.54 92.98 8.08Q92.52 7.61 92.40 6.98L92.40 6.98Q93.24 6.29 93.73 5.53Q94.22 4.78 94.22 4.15L94.22 4.15Q94.22 3.10 92.90 3.10L92.90 3.10Q92.35 3.10 91.76 3.32Q91.18 3.55 90.58 3.96Q89.98 4.37 89.41 4.94Q88.85 5.52 88.37 6.22L88.37 6.22Q85.03 11.02 85.03 16.03L85.03 16.03Q85.03 17.81 85.58 18.89Q86.14 19.97 87.05 20.16L87.05 20.16Q88.08 19.92 89.66 18.84Q91.25 17.76 93.12 16.03L93.12 16.03Q93.36 16.27 93.41 16.54L93.41 16.54Q92.71 17.45 91.97 18.29Q91.22 19.13 90.49 19.82Q89.76 20.52 89.05 21.05Q88.34 21.58 87.74 21.86L87.74 21.86Q84.77 21.82 83.23 20.16Q81.70 18.50 81.70 15.29Z" transform="translate(51, 3.496)"></path></svg>